# xmcd
#
# Track frame offsets:
#	150
#	24535
#	50010
#	72612
#	86875
#	124062
#	146012
#
# Disc length: 2281 seconds
#
# Revision: 3
# Processed by: cddbd v1.5.2PL0 Copyright (c) Steve Scherf et al.
# Submitted via: EZCDAudioConverter 1.3.4.1
#
DISCID=6a08e707
DTITLE=Dr. John - Babylon
DYEAR=1969
DGENRE=
TTITLE0=Babylon
TTITLE1=Glowin'
TTITLE2=Black Widow Spider
TTITLE3=Barefoot Lady
TTITLE4=Twilight Zone
TTITLE5=The Patriotic Flag-Waiver
TTITLE6=The Lonesome Guitar Strangler
EXTD=
EXTT0=
EXTT1=
EXTT2=
EXTT3=
EXTT4=
EXTT5=
EXTT6=
PLAYORDER=
